<svg width="28" height="32" xmlns="http://www.w3.org/2000/svg">
<path d="M187.400 79.600 C 186.740 79.768,185.438 79.927,184.506 79.953 C 183.574 79.979,182.044 80.176,181.106 80.392 C 180.168 80.608,177.764 81.152,175.765 81.602 C 129.827 91.932,103.811 138.134,117.819 184.509 C 118.742 187.565,119.291 187.404,108.067 187.373 C 83.060 187.303,77.172 181.673,87.317 167.533 C 90.317 163.353,90.280 163.423,89.148 164.025 C 73.889 172.145,72.833 187.008,87.000 194.279 C 97.553 199.694,117.753 203.091,134.453 202.257 C 145.894 201.686,156.783 200.837,160.200 200.250 C 160.860 200.137,162.840 199.845,164.600 199.602 C 171.207 198.688,179.109 197.281,186.200 195.756 C 189.904 194.959,201.931 192.032,203.200 191.619 C 203.750 191.439,205.010 191.071,206.000 190.800 C 206.990 190.529,208.250 190.160,208.800 189.979 C 209.350 189.799,211.690 189.082,214.000 188.386 C 224.159 185.326,236.155 180.783,248.000 175.509 C 260.435 169.973,274.765 161.468,283.514 154.430 C 306.636 135.831,306.936 118.265,284.200 114.188 C 279.035 113.262,271.082 113.550,275.294 114.511 C 281.644 115.959,290.529 121.168,292.217 124.432 C 295.980 131.709,282.275 142.116,252.258 154.776 C 247.363 156.841,235.757 161.139,229.000 163.390 C 224.044 165.040,213.657 168.285,210.400 169.200 C 209.630 169.416,207.740 169.963,206.200 170.415 C 204.660 170.867,202.770 171.404,202.000 171.610 C 201.230 171.815,199.340 172.331,197.800 172.755 C 194.995 173.529,184.383 176.146,178.000 177.639 C 176.130 178.077,173.921 178.615,173.092 178.836 C 170.905 179.417,169.902 178.034,168.059 171.899 C 166.597 167.028,166.400 165.518,166.400 159.165 C 166.400 124.782,201.674 111.726,223.673 137.967 L 225.489 140.133 226.845 139.176 C 227.590 138.650,232.430 135.079,237.600 131.240 C 242.770 127.402,250.150 121.929,254.000 119.078 C 257.850 116.227,261.154 113.755,261.341 113.586 C 262.112 112.889,255.670 104.554,250.335 99.344 C 245.213 94.343,241.402 91.585,234.000 87.522 C 223.064 81.518,197.164 77.116,187.400 79.600 M235.200 191.039 C 226.188 194.524,214.865 198.274,206.800 200.444 C 196.288 203.273,192.009 204.295,184.400 205.796 C 182.750 206.122,180.590 206.558,179.600 206.767 C 177.901 207.125,175.730 207.487,169.900 208.385 C 168.525 208.597,165.780 208.961,163.800 209.195 C 161.820 209.429,159.570 209.708,158.800 209.816 C 155.281 210.309,141.757 211.195,137.700 211.197 C 134.401 211.199,133.200 211.332,133.200 211.693 C 133.200 212.447,141.815 220.762,145.200 223.275 C 156.545 231.698,168.159 236.497,182.365 238.634 C 186.807 239.302,202.007 239.405,205.967 238.794 C 207.415 238.570,209.860 238.194,211.400 237.958 C 226.595 235.625,240.660 228.541,251.414 217.806 C 255.369 213.858,262.400 205.429,262.400 204.636 C 262.400 203.996,241.463 189.202,240.600 189.232 C 240.160 189.247,237.730 190.060,235.200 191.039 M96.353 266.191 C 82.478 269.016,80.176 288.304,93.000 294.276 C 96.426 295.871,103.386 295.889,106.850 294.313 C 108.962 293.351,112.400 290.680,112.400 290.000 C 112.400 289.169,107.112 286.260,106.460 286.733 C 103.400 288.951,101.417 289.503,98.229 289.025 C 94.206 288.422,92.017 285.558,92.007 280.884 C 91.989 273.198,99.119 269.605,105.462 274.103 L 107.124 275.281 109.537 273.643 C 112.578 271.578,112.635 271.471,111.372 270.208 C 107.884 266.721,101.775 265.087,96.353 266.191 M132.353 266.203 C 118.489 268.965,116.178 288.313,129.000 294.274 C 134.413 296.791,142.925 295.558,146.925 291.679 C 154.124 284.698,152.177 271.281,143.400 267.394 C 139.699 265.755,136.390 265.398,132.353 266.203 M272.800 266.158 C 262.404 268.085,257.452 279.569,262.962 288.972 C 267.291 296.358,279.742 297.879,286.987 291.906 C 288.897 290.332,288.788 289.893,286.022 288.015 C 283.172 286.080,283.567 286.106,281.272 287.700 C 274.277 292.558,265.959 285.907,268.485 277.475 C 270.088 272.123,277.837 270.456,282.286 274.506 L 283.171 275.313 285.786 273.609 C 288.821 271.631,288.907 271.328,286.918 269.582 C 284.929 267.835,281.953 266.531,278.800 266.024 C 275.803 265.542,276.171 265.534,272.800 266.158 M161.467 266.267 C 161.320 266.413,161.200 272.874,161.200 280.624 C 161.200 296.433,160.936 295.204,164.333 295.195 C 168.233 295.183,168.000 295.655,168.000 287.753 C 168.000 283.552,168.153 280.800,168.386 280.800 C 168.871 280.800,170.223 281.963,178.265 289.300 C 184.647 295.121,185.680 295.811,186.157 294.567 C 186.671 293.228,186.425 267.787,185.891 267.057 C 185.471 266.482,184.862 266.382,182.391 266.481 L 179.400 266.600 179.290 273.300 C 179.205 278.514,179.064 280.000,178.655 280.000 C 178.365 280.000,175.265 277.458,171.764 274.350 C 162.382 266.021,162.007 265.727,161.467 266.267 M197.043 266.633 C 196.909 266.981,196.800 273.364,196.800 280.819 C 196.800 296.265,196.534 295.200,200.400 295.200 C 204.074 295.200,204.000 295.357,204.000 287.586 C 204.000 283.725,204.159 280.800,204.368 280.800 C 204.725 280.800,207.077 282.830,211.600 287.041 C 217.748 292.766,220.657 295.209,221.200 295.105 C 221.717 295.005,221.814 293.050,221.905 280.904 L 222.010 266.818 221.088 266.586 C 220.581 266.459,219.094 266.410,217.783 266.478 L 215.400 266.600 215.290 273.300 C 215.156 281.510,215.484 281.384,209.061 275.693 C 197.558 265.499,197.496 265.452,197.043 266.633 M233.067 266.667 C 232.920 266.813,232.800 273.182,232.800 280.820 L 232.800 294.707 233.700 294.948 C 234.195 295.081,238.232 295.192,242.671 295.195 C 251.903 295.201,252.000 295.169,252.000 292.145 C 252.000 288.829,251.944 288.800,245.564 288.800 L 239.956 288.800 240.078 286.900 L 240.200 285.000 245.200 284.800 L 250.200 284.600 250.200 282.000 L 250.200 279.400 245.100 279.288 L 240.000 279.176 240.000 275.988 L 240.000 272.800 245.371 272.800 C 251.607 272.800,252.000 272.619,252.000 269.745 C 252.000 266.274,252.368 266.400,242.253 266.400 C 237.347 266.400,233.213 266.520,233.067 266.667 M296.274 266.660 C 296.123 266.810,296.000 268.144,296.000 269.624 C 296.000 272.760,296.048 272.800,299.833 272.800 L 302.400 272.800 302.400 283.753 L 302.400 294.707 303.300 294.948 C 304.459 295.258,307.541 295.258,308.700 294.948 L 309.600 294.707 309.600 283.770 L 309.600 272.834 312.700 272.717 L 315.800 272.600 315.800 269.600 L 315.800 266.600 306.174 266.493 C 300.879 266.434,296.424 266.509,296.274 266.660 M137.923 272.455 C 146.754 274.596,146.089 288.152,137.107 289.072 C 125.559 290.255,124.195 273.475,135.723 272.040 C 135.900 272.018,136.890 272.205,137.923 272.455 M159.802 310.797 C 159.667 311.015,159.741 311.510,159.966 311.897 C 160.317 312.500,160.377 312.444,160.388 311.500 C 160.401 310.350,160.216 310.128,159.802 310.797 M193.600 310.891 C 193.600 311.620,194.309 312.224,194.703 311.831 C 194.840 311.693,194.648 311.277,194.276 310.905 C 193.653 310.281,193.600 310.280,193.600 310.891 M231.400 313.600 C 231.240 313.858,231.290 314.250,231.510 314.470 C 231.776 314.736,232.006 314.713,232.200 314.400 C 232.360 314.142,232.310 313.750,232.090 313.530 C 231.824 313.264,231.594 313.287,231.400 313.600 M236.400 314.000 C 236.400 314.220,236.670 314.400,237.000 314.400 C 237.330 314.400,237.600 314.220,237.600 314.000 C 237.600 313.780,237.330 313.600,237.000 313.600 C 236.670 313.600,236.400 313.780,236.400 314.000 " stroke="none" fill="#f1f1f9" fill-rule="evenodd"/>
</svg>